<svg width="420" height="420" viewBox="0 0 420 420" fill="none" xmlns="http://www.w3.org/2000/svg">
<path d="M174.997 210C202.845 210 229.552 198.938 249.243 179.246C268.934 159.554 279.997 132.848 279.997 105C279.997 77.152 268.935 50.445 249.243 30.754C229.551 11.063 202.845 0 174.997 0C147.149 0 120.442 11.062 100.751 30.754C81.06 50.446 69.997 77.152 69.997 105C69.997 132.848 81.059 159.555 100.751 179.246C120.443 198.937 147.149 210 174.997 210ZM174.997 35C193.563 35 211.368 42.375 224.493 55.504C237.622 68.629 244.997 86.434 244.997 105C244.997 123.566 237.622 141.371 224.493 154.496C211.368 167.625 193.563 175 174.997 175C156.431 175 138.626 167.625 125.501 154.496C112.372 141.371 104.997 123.566 104.997 105C104.997 86.434 112.372 68.629 125.501 55.504C138.626 42.375 156.431 35 174.997 35V35ZM419.997 280C419.923 246.586 403.95 215.207 376.981 195.48C350.012 175.757 315.266 170.042 283.403 180.097C251.54 190.152 226.364 214.769 215.598 246.398C209.102 245.503 202.555 245.039 195.996 245H153.996C113.168 245.046 74.023 261.285 45.156 290.156C16.289 319.027 0.047 358.172 0 398.996V402.496C0 407.136 1.8438 411.589 5.125 414.871C8.4062 418.152 12.8594 419.996 17.5 419.996H332.5C337.141 419.996 341.594 418.152 344.875 414.871C348.156 411.589 350 407.136 350 402.496V398.996C349.961 392.437 349.496 385.891 348.602 379.394C369.399 372.37 387.473 359.003 400.282 341.175C413.087 323.343 419.985 301.948 420.001 279.995L419.997 280ZM35.877 385C39.3028 356.074 53.221 329.41 74.99 310.059C96.763 290.707 124.873 280.012 154.002 280H196.002C200.682 280.035 205.354 280.328 210.002 280.875V286.648V291.023L211.053 297.324C210.955 298.664 210.955 300.012 211.053 301.352C211.053 303.453 212.104 305.551 212.627 307.652C213.15 309.754 212.627 310.101 213.502 311.328C214.377 312.555 215.076 315.351 215.775 317.453C216.475 319.555 216.65 319.902 217.174 320.953L217.178 320.949C218.006 322.98 218.939 324.969 219.979 326.898C219.979 327.949 221.029 329.172 221.553 330.047V330.051C222.615 332.094 223.783 334.078 225.053 336C225.053 336.875 226.103 337.926 226.803 338.801L231.178 344.574L232.752 346.848C234.678 349.121 236.775 351.398 238.877 353.496L241.15 355.769L246.924 361.019L250.775 363.82L254.975 366.969L258.998 369.418L263.549 372.219L267.748 374.32L272.646 376.594L277.197 378.344L282.271 380.094L286.822 381.32L292.248 382.719L296.974 383.594H307.299L315.002 385L35.877 385ZM326.027 348.949C322.386 349.586 318.699 349.937 315.004 350C296.438 350 278.633 342.625 265.508 329.496C252.379 316.371 245.004 298.566 245.004 280C245.055 276.41 245.465 272.832 246.231 269.324C248.945 252.238 257.895 236.762 271.352 225.886C284.805 215.007 301.813 209.495 319.09 210.417C336.367 211.339 352.692 218.628 364.91 230.874C377.133 243.124 384.383 259.464 385.269 276.741C386.151 294.022 380.605 311.014 369.699 324.448C358.793 337.878 343.297 346.792 326.203 349.475L326.027 348.949ZM337.578 250.074L315.004 272.824L309.93 267.574C305.488 263.137 299.02 261.402 292.957 263.027C286.89 264.652 282.156 269.386 280.531 275.453C278.906 281.516 280.64 287.984 285.078 292.426L302.578 309.926C305.863 313.239 310.336 315.102 315.004 315.102C319.672 315.102 324.144 313.239 327.43 309.926L362.43 274.926C366.867 270.485 368.602 264.016 366.977 257.953C365.352 251.887 360.617 247.152 354.551 245.527C348.488 243.902 342.02 245.636 337.578 250.074H337.578Z" fill="black"/>
</svg>
